<?xml version="1.0" encoding="UTF-8" standalone="no"?>
<svg
   version="1.1"
   viewBox="0 0 1524.6099 349.51186"
   id="svg110"
   sodipodi:docname="logo-horizontal.svg"
   width="1524.61"
   height="349.51187"
   inkscape:version="1.4.3 (0d15f75, 2025-12-25)"
   xmlns:inkscape="http://www.inkscape.org/namespaces/inkscape"
   xmlns:sodipodi="http://sodipodi.sourceforge.net/DTD/sodipodi-0.dtd"
   xmlns="http://www.w3.org/2000/svg"
   xmlns:svg="http://www.w3.org/2000/svg">
  <sodipodi:namedview
     id="namedview110"
     pagecolor="#ffffff"
     bordercolor="#000000"
     borderopacity="0.25"
     inkscape:showpageshadow="false"
     inkscape:pageopacity="0.0"
     inkscape:pagecheckerboard="true"
     inkscape:deskcolor="#d1d1d1"
     inkscape:zoom="1"
     inkscape:cx="777"
     inkscape:cy="188.5"
     inkscape:window-width="3840"
     inkscape:window-height="1514"
     inkscape:window-x="2869"
     inkscape:window-y="-8"
     inkscape:window-maximized="1"
     inkscape:current-layer="svg110"
     showborder="false"
     borderlayer="false" />
  <!-- Generator: Adobe Illustrator 29.7.1, SVG Export Plug-In . SVG Version: 2.1.1 Build 8)  -->
  <defs
     id="defs1">
    <rect
       x="287"
       y="45"
       width="634"
       height="231.36501"
       id="rect4" />
    <style
       id="style1">
      .st0 {
        fill: #333;
      }

      .st1, .st2 {
        fill: #fff;
      }

      .st3 {
        isolation: isolate;
      }

      .st2, .st4 {
        mix-blend-mode: screen;
      }

      .st5 {
        fill-rule: evenodd;
      }

      .st5, .st6 {
        fill: #010101;
      }

      .st7 {
        fill: #e92929;
        stroke: #010101;
        stroke-miterlimit: 10;
        stroke-width: 2px;
      }
    </style>
    <rect
       x="287"
       y="45"
       width="634"
       height="231.36501"
       id="rect5" />
    <rect
       x="287"
       y="45"
       width="634"
       height="231.36501"
       id="rect6" />
    <rect
       x="287"
       y="45"
       width="634"
       height="231.36501"
       id="rect7" />
  </defs>
  <g
     id="g1">
    <g
       id="text4"
       transform="matrix(2.270793,0,0,2.270793,-76.174917,-137.638)">
      <path
         style="font-weight:bold;font-size:106.667px;line-height:1.9;font-family:Arial;-inkscape-font-specification:'Arial Bold';letter-spacing:8.87503px;baseline-shift:baseline;white-space:pre;display:inline;overflow:visible;vector-effect:none;fill:#007e7a;enable-background:accumulate;stop-color:#000000;stop-opacity:1"
         d="M 314.23967,175.74755 286.94792,99.39314 h 16.7188 l 19.32298,56.51059 18.69797,-56.51059 h 16.35422 l -27.34384,76.35441 z m 60.33352,0 V 99.39314 h 23.07299 l 13.85421,52.0835 13.69796,-52.0835 h 23.12507 v 76.35441 h -14.32296 v -60.10436 l -15.15629,60.10436 h -14.8438 l -15.10421,-60.10436 v 60.10436 z m 97.93782,0 V 99.39314 h 56.61476 v 12.91671 h -41.19805 v 16.92713 h 38.33345 v 12.86463 h -38.33345 v 20.78131 h 42.65638 v 12.86463 z m 128.87539,-28.07301 14.94796,4.7396 q -3.43751,12.50004 -11.45837,18.59381 -7.96877,6.04168 -20.26048,6.04168 -15.20838,0 -25.00008,-10.36461 -9.79169,-10.4167 -9.79169,-28.43759 0,-19.06256 9.84378,-29.58343 9.84378,-10.572947 25.88549,-10.572947 14.01046,0 22.76049,8.281277 5.20835,4.89585 7.81253,14.06254 l -15.26047,3.64585 q -1.35417,-5.93752 -5.6771,-9.37503 -4.27085,-3.43751 -10.4167,-3.43751 -8.48961,0 -13.80212,6.09377 -5.26044,6.09377 -5.26044,19.73964 0,14.47921 5.20835,20.62507 5.20835,6.14585 13.54171,6.14585 6.14585,0 10.57295,-3.90626 4.4271,-3.90627 6.35419,-12.29171 z m 85.90652,0 14.94797,4.7396 q -3.43752,12.50004 -11.45837,18.59381 -7.96878,6.04168 -20.26048,6.04168 -15.20838,0 -25.00008,-10.36461 -9.7917,-10.4167 -9.7917,-28.43759 0,-19.06256 9.84378,-29.58343 9.84378,-10.572947 25.8855,-10.572947 14.01046,0 22.76049,8.281277 5.20835,4.89585 7.81252,14.06254 l -15.26046,3.64585 q -1.35417,-5.93752 -5.6771,-9.37503 -4.27085,-3.43751 -10.4167,-3.43751 -8.48961,0 -13.80213,6.09377 -5.26043,6.09377 -5.26043,19.73964 0,14.47921 5.20835,20.62507 5.20835,6.14585 13.54171,6.14585 6.14585,0 10.57295,-3.90626 4.42709,-3.90627 6.35418,-12.29171 z"
         id="path2" />
      <path
         style="font-weight:bold;font-size:106.667px;line-height:1.9;font-family:Arial;-inkscape-font-specification:'Arial Bold';letter-spacing:8.87503px;baseline-shift:baseline;white-space:pre;display:inline;overflow:visible;vector-effect:none;fill:#007e7a;enable-background:accumulate;stop-color:#000000;stop-opacity:1"
         d="m 585.55273,95.873047 c -11.17987,0 -20.53415,3.789557 -27.50586,11.275393 -6.2e-4,6.6e-4 -10e-4,0.001 -0.002,0.002 -6.4e-4,6.9e-4 -10e-4,10e-4 -0.002,0.002 -7.01676,7.50183 -10.4375,18.00774 -10.4375,31.09571 0,12.41578 3.42746,22.54732 10.39258,29.95703 l 0.002,0.002 0.002,0.002 c 6.9216,7.32658 15.97033,11.0586 26.61328,11.0586 8.558,0 15.8514,-2.13259 21.60157,-6.49219 h 0.002 c 5.80756,-4.41224 9.87164,-11.10355 12.25586,-19.77344 l 0.56445,-2.05859 -19.27539,-6.11133 -0.53906,2.3457 c -1.2185,5.30214 -3.1796,8.93627 -5.66016,11.125 -2.56946,2.26717 -5.47831,3.35157 -9.10547,3.35157 -5.01013,0 -8.75472,-1.70937 -11.84961,-5.36133 -2.9166,-3.4416 -4.68164,-9.80464 -4.68164,-19.19141 0,-8.80627 1.74681,-14.83769 4.71485,-18.28125 l 0.002,-0.002 c 3.15661,-3.61975 6.99911,-5.33203 12.12695,-5.33203 3.68357,0 6.58313,0.98154 9.02539,2.94726 l 0.006,0.004 0.004,0.004 c 2.4832,1.97459 4.08688,4.58299 4.89648,8.13281 l 0.49805,2.18555 19.69141,-4.70508 -0.63281,-2.22656 c -1.81322,-6.38251 -4.58319,-11.45589 -8.42188,-15.06641 -6.26275,-5.927242 -14.5077,-8.888673 -24.28516,-8.888673 z m 85.90625,0 c -11.17988,0 -20.53415,3.789556 -27.50586,11.275393 -6.2e-4,6.6e-4 -10e-4,0.001 -0.002,0.002 -6.4e-4,6.9e-4 -10e-4,10e-4 -0.002,0.002 -7.01676,7.50183 -10.4375,18.00774 -10.4375,31.09571 0,12.41578 3.4294,22.54732 10.39453,29.95703 v 0.002 l 0.002,0.002 c 6.9216,7.32658 15.97033,11.0586 26.61328,11.0586 8.558,0 15.8514,-2.13259 21.60157,-6.49219 h 0.002 c 5.80756,-4.41224 9.87163,-11.10355 12.25586,-19.77344 l 0.56445,-2.05859 -19.27539,-6.11133 -0.53906,2.3457 c -1.2185,5.30214 -3.17961,8.93627 -5.66016,11.125 -2.56946,2.26717 -5.47831,3.35157 -9.10547,3.35157 -5.01013,0 -8.75276,-1.70937 -11.84765,-5.36133 -2.91661,-3.4416 -4.6836,-9.80464 -4.6836,-19.19141 0,-8.81115 1.75163,-14.84451 4.72266,-18.28711 3.3e-4,-3.8e-4 -3.3e-4,-0.002 0,-0.002 3.15555,-3.61527 6.99633,-5.32617 12.12109,-5.32617 3.68357,0 6.58313,0.98154 9.02539,2.94726 l 0.006,0.004 0.006,0.004 c 2.4832,1.97459 4.08493,4.58299 4.89453,8.13281 l 0.49805,2.18555 19.69141,-4.70508 -0.63281,-2.22656 c -1.81307,-6.38199 -4.58172,-11.45595 -8.41993,-15.06641 l -0.002,-0.002 c -6.2625,-5.925974 -14.50874,-8.886723 -24.28516,-8.886723 z m -387.66015,1.300781 28.87695,80.792972 h 19.58399 l 28.93359,-80.792972 h -21.10938 l -17.1289,51.769532 -17.70313,-51.769532 z m 88.55469,0 V 177.9668 h 18.76171 v -44.38868 l 11.1543,44.38868 h 18.30274 l 11.20898,-44.44727 v 44.44727 h 18.76172 V 97.173828 h -27.05469 l -12,45.626952 -12.13672,-45.626952 z m 97.93945,0 V 177.9668 h 62.50976 v -17.30274 h -42.65625 v -16.34375 h 38.33399 V 127.01758 H 490.14648 V 114.5293 h 41.19727 V 97.173828 Z m 115.25976,3.136722 c 8.90316,0 15.83237,2.55936 21.23633,7.67383 l 0.002,0.002 0.002,0.002 c 2.66148,2.50179 4.7198,6.2496 6.33008,10.88281 l -10.75782,2.57032 c -1.15866,-3.40212 -3.07121,-6.30361 -5.78515,-8.46485 l -0.006,-0.004 c -3.25125,-2.61466 -7.2944,-3.92383 -11.80274,-3.92383 -6.1906,0 -11.54823,2.35168 -15.47461,6.85547 l -0.004,0.004 -0.002,0.004 c -4.04228,4.68263 -5.80079,11.8071 -5.80079,21.18945 0,9.91885 1.70652,17.30572 5.73438,22.0586 3.84958,4.5425 9.13336,6.93164 15.23437,6.93164 4.56731,0 8.70768,-1.51976 12.04102,-4.46094 2.94763,-2.60085 5.00054,-6.40773 6.38867,-11.15234 l 10.61524,3.36523 c -2.22617,6.89778 -5.52623,12.02179 -9.97071,15.39844 -4.87454,3.6949 -11.08816,5.58789 -18.91797,5.58789 -9.63283,0 -17.24947,-3.17395 -23.38281,-9.66406 l -0.002,-0.002 c -6.5e-4,-6.9e-4 -10e-4,-0.001 -0.002,-0.002 -6.08799,-6.47886 -9.18555,-15.30438 -9.18555,-26.91406 0,-12.32646 3.13838,-21.54263 9.24414,-28.06836 l 0.002,-0.002 0.002,-0.002 c 6.15292,-6.6087 14.05469,-9.86523 24.26171,-9.86523 z m 85.90625,0 c 8.90316,0 15.83237,2.55936 21.23633,7.67383 l 0.002,0.002 0.004,0.002 c 2.66148,2.50179 4.71785,6.2496 6.32813,10.88281 l -10.75782,2.57032 c -1.15866,-3.40212 -3.07121,-6.30361 -5.78515,-8.46485 l -0.006,-0.004 c -3.25125,-2.61465 -7.2944,-3.92383 -11.80274,-3.92383 -6.1906,0 -11.54822,2.35168 -15.47461,6.85547 l -0.004,0.004 -0.002,0.004 c -4.04227,4.68263 -5.80079,11.8071 -5.80079,21.18945 0,9.91885 1.70652,17.30572 5.73438,22.0586 3.84958,4.5425 9.13336,6.93164 15.23437,6.93164 4.56731,0 8.70768,-1.51976 12.04102,-4.46094 2.94762,-2.60085 5.00054,-6.40773 6.38867,-11.15234 l 10.61524,3.36523 c -2.22617,6.89778 -5.52623,12.02179 -9.97071,15.39844 -4.87455,3.69491 -11.08817,5.58789 -18.91797,5.58789 -9.63283,0 -17.24947,-3.17395 -23.38281,-9.66406 l -0.002,-0.002 c -6.5e-4,-6.9e-4 -10e-4,-0.001 -0.002,-0.002 -6.08799,-6.47886 -9.18555,-15.30438 -9.18555,-26.91406 0,-12.32646 3.13838,-21.54263 9.24414,-28.06836 l 0.002,-0.002 0.002,-0.002 c 6.15292,-6.6087 14.05469,-9.86523 24.26171,-9.86523 z m -381.36132,1.30078 h 11.98242 l 20.94336,61.25195 20.26758,-61.25195 h 11.5996 l -25.7539,71.91797 h -13.33399 z m 86.69336,0 h 19.15039 l 15.57031,58.54297 15.39648,-58.54297 h 19.19727 v 71.91797 h -9.88672 v -57.88672 l -4.36914,-0.54102 -14.73438,58.42774 h -11.38476 l -14.68164,-58.42774 -4.3711,0.54102 v 57.88672 h -9.88671 z m 97.93945,0 h 52.17578 v 8.48047 h -41.19727 v 21.36328 h 38.33399 v 8.42773 h -38.33399 v 25.21875 h 42.65625 v 8.42774 h -53.63476 z"
         id="path3" />
    </g>
    <g
       id="g100"
       transform="matrix(2.3633232,0,0,2.3633232,-33.705486,-86.497628)">
      <g
         id="g76">
        <path
           id="path75"
           style="isolation:isolate;fill:#010101"
           class="st6"
           d="m 66.937396,160.2 -9.01315,-7.65139 -17.50996,11.07789 3.05311,11.4235 z m -51.490001,-36.03 10.060001,15.9 6.45,-4.08 -10.060001,-15.91 -4.08,-6.45 c -3.56,2.25 -4.63,6.97 -2.37,10.54 z m 30.540001,60.32 c 0,0 6.49,-1.8 15.24,-7.34 8.76,-5.54 13.16,-10.63 13.16,-10.63 l -7.45,-6.32 -23.47,14.85 z m 11.93686,-31.9414 -14.90597,-23.56069 -17.50996,11.07789 14.90597,23.5607 z M 207.05739,51.98 l -17.73,5.51 -89.889994,56.87 c 0,0 -38.7,24.26 -40.26,31.17 l -4.07,2.58 -9.27,-14.66 12.37,-7.83 c 0,0 17.1,-6.49 36.49,-18.75 l 105.039994,-66.46 6.03,-3.81 3.92,6.19 -2.62,9.19 z" />
        <path
           id="path76"
           style="isolation:isolate;fill:#010101"
           class="st6"
           transform="translate(-71.788097,-55.52)"
           d="m 228.8,215.72 9.01315,-7.65139 17.50996,11.07789 L 252.27,230.57 Z m 51.49,-36.03 -10.06,15.9 -6.45,-4.08 10.06,-15.91 4.08,-6.45 c 3.56,2.25 4.63,6.97 2.37,10.54 z m -30.54,60.32 c 0,0 -6.49,-1.8 -15.24,-7.34 -8.76,-5.54 -13.16,-10.63 -13.16,-10.63 l 7.45,-6.32 23.47,14.85 z m -11.93686,-31.9414 14.90597,-23.56069 17.50996,11.07789 -14.90597,23.5607 z M 88.68,107.5 l 17.73,5.51 89.89,56.87 c 0,0 38.7,24.26 40.26,31.17 l 4.07,2.58 9.27,-14.66 -12.37,-7.83 c 0,0 -17.1,-6.49 -36.49,-18.75 L 96,95.93 l -6.03,-3.81 -3.92,6.19 2.62,9.19 z" />
      </g>
      <g
         id="g99"
         transform="translate(267.65775,1.1250018)">
        <g
           id="g98"
           transform="translate(-263.5,-1.2500018)">
          <path
             class="st6"
             d="m 173.7219,106.11 c 0,8.41 -29.51,21.84 -65.9,21.84 -36.389997,0 -65.899997,-13.43 -65.899997,-21.84 0,-8.41 29.51,-15.23 65.899997,-15.23 36.39,0 65.9,6.82 65.9,15.23 z"
             id="path77"
             style="isolation:isolate" />
          <path
             class="st6"
             d="m 107.8119,90.88 c 16.67,0 31.89,1.43 43.49,3.79 V 84.21 c 0.06,-24.05 -19.44,-43.55 -43.49,-43.55 -24.049997,0 -43.549997,19.5 -43.549997,43.55 v 10.47 c 11.61,-2.36 26.85,-3.8 43.549997,-3.8 z"
             id="path78"
             style="isolation:isolate" />
          <path
             class="st6"
             d="m 107.8219,85.53 c -35.219997,0 -41.719997,18.68 -41.719997,41.72 0,19.61 11.92,52.34 41.719997,52.34 29.8,0 41.72,-32.73 41.72,-52.34 0,-23.05 -6.5,-41.72 -41.72,-41.72 z"
             id="path79"
             style="isolation:isolate" />
          <path
             class="st6"
             d="m 120.6119,126.17 c -2.59,-3.71 -4.12,-13.33 -12.79,-13.33 -8.669997,0 -10.199997,9.62 -12.789997,13.33 -3.22,4.6 -9.93,4.77 -9.93,22.61 4.22,10.23 11.58,19.11 22.709997,19.11 11.13,0 18.49,-8.88 22.71,-19.11 0,-17.85 -6.71,-18.02 -9.93,-22.61 z"
             id="path80"
             style="isolation:isolate" />
          <path
             class="st6"
             d="m 118.7819,164.54 v -16.35 c -2.42,-2.02 -6.43,-3.34 -10.96,-3.34 -4.53,0 -8.539997,1.33 -10.969997,3.34 v 16.35 c 3.149997,2.1 6.789997,3.35 10.969997,3.35 4.18,0 7.82,-1.25 10.96,-3.35 z"
             id="path81"
             style="isolation:isolate" />
          <path
             class="st6"
             d="m 107.8219,147.23 c -7.39,0 -13.389997,3.5 -13.389997,7.82 v 11.64 H 121.2019 v -11.64 c 0,-4.32 -5.99,-7.82 -13.39,-7.82 z"
             id="path82"
             style="isolation:isolate" />
          <path
             class="st6"
             d="m 121.2119,156.68 c -2.9,-2.51 -7.82,-4.15 -13.39,-4.15 -5.57,0 -10.489997,1.65 -13.389997,4.15 v 15.89 H 121.2019 v -15.89 z"
             id="path83"
             style="isolation:isolate" />
          <path
             class="st6"
             d="m 107.8219,153.8 c -8.919997,0 -16.149997,4.22 -16.149997,9.43 v 8.02 c 0,5.21 7.23,9.43 16.149997,9.43 8.92,0 16.15,-4.22 16.15,-9.43 v -8.02 c 0,-5.21 -7.23,-9.43 -16.15,-9.43 z"
             id="path84"
             style="isolation:isolate" />
          <path
             class="st2"
             d="m 107.8219,153.8 c -8.919997,0 -16.149997,4.22 -16.149997,9.43 v 2.6 c 0,-5.21 7.23,-9.43 16.149997,-9.43 8.92,0 16.15,4.22 16.15,9.43 v -2.6 c 0,-5.21 -7.23,-9.43 -16.15,-9.43 z"
             id="path85"
             style="isolation:isolate;fill:#ecb11f;fill-opacity:1" />
          <path
             class="st2"
             d="m 121.2219,171.25 c 0,4.32 -6,7.82 -13.4,7.82 -7.4,0 -13.399997,-3.5 -13.399997,-7.82 0,-4.32 5.999997,-7.83 13.399997,-7.83 7.4,0 13.4,3.5 13.4,7.83 z"
             id="path86"
             style="isolation:isolate;fill:#ecb11f;fill-opacity:1" />
          <path
             class="st6"
             d="m 88.591903,151.21 c -1.89,-4.64 -5.22,-7.67 -7.45,-6.77 l -6,2.44 6.84,16.82 6,-2.44 c 2.22,-0.9 2.49,-5.4 0.61,-10.04 z"
             id="path87"
             style="isolation:isolate" />
          <path
             class="st6"
             d="m 87.141903,161.59 c 0.55,-2.35 0.14,-5.78 -1.28,-9.28 -1.42,-3.5 -3.52,-6.24 -5.56,-7.54 l -8.18,3.33 6.84,16.81 8.19,-3.33 z"
             id="path88"
             style="isolation:isolate" />
          <path
             class="st6"
             d="m 85.201903,152.58 c -2.28,-5.6 -6.3,-9.26 -8.98,-8.17 l -4.13,1.68 c -2.68,1.09 -3.01,6.52 -0.73,12.12 2.28,5.6 6.3,9.26 8.98,8.17 l 4.13,-1.68 c 2.68,-1.09 3.01,-6.52 0.73,-12.12 z"
             id="path89"
             style="isolation:isolate" />
          <path
             class="st2"
             d="m 85.201903,152.58 c -2.28,-5.6 -6.3,-9.26 -8.98,-8.17 l -1.34,0.55 c 2.68,-1.09 6.7,2.56 8.98,8.16 2.28,5.6 1.95,11.02 -0.73,12.11 l 1.34,-0.54 c 2.68,-1.09 3.01,-6.52 0.73,-12.12 z"
             id="path90"
             style="isolation:isolate;fill:#ecb11f;fill-opacity:1" />
          <path
             class="st2"
             d="m 79.641903,164.65 c -2.23,0.91 -5.56,-2.13 -7.45,-6.78 -1.89,-4.65 -1.62,-9.15 0.61,-10.06 2.23,-0.91 5.56,2.13 7.45,6.78 1.89,4.65 1.62,9.15 -0.6,10.05 z"
             id="path91"
             style="isolation:isolate;fill:#ecb11f;fill-opacity:1" />
          <path
             class="st6"
             d="m 127.0519,151.21 c 1.89,-4.64 5.22,-7.67 7.45,-6.77 l 6,2.44 -6.84,16.82 -6,-2.44 c -2.22,-0.9 -2.49,-5.4 -0.61,-10.04 z"
             id="path92"
             style="isolation:isolate" />
          <path
             class="st6"
             d="m 128.4919,161.59 c -0.55,-2.35 -0.14,-5.78 1.28,-9.28 1.42,-3.5 3.52,-6.24 5.56,-7.54 l 8.18,3.33 -6.84,16.81 -8.19,-3.33 z"
             id="path93"
             style="isolation:isolate" />
          <path
             class="st6"
             d="m 130.4419,152.58 c 2.28,-5.6 6.3,-9.26 8.98,-8.17 l 4.13,1.68 c 2.68,1.09 3.01,6.52 0.73,12.12 -2.28,5.6 -6.3,9.26 -8.98,8.17 l -4.13,-1.68 c -2.68,-1.09 -3.01,-6.52 -0.73,-12.12 z"
             id="path94"
             style="isolation:isolate" />
          <path
             class="st2"
             d="m 130.4419,152.58 c 2.28,-5.6 6.3,-9.26 8.98,-8.17 l 1.34,0.55 c -2.68,-1.09 -6.7,2.56 -8.98,8.16 -2.28,5.6 -1.95,11.02 0.73,12.11 l -1.34,-0.54 c -2.68,-1.09 -3.01,-6.52 -0.73,-12.12 z"
             id="path95"
             style="isolation:isolate;fill:#ecb11f;fill-opacity:1" />
          <path
             class="st2"
             d="m 136.0019,164.65 c 2.23,0.91 5.56,-2.13 7.45,-6.78 1.89,-4.65 1.62,-9.15 -0.61,-10.06 -2.23,-0.91 -5.56,2.13 -7.45,6.78 -1.89,4.65 -1.62,9.15 0.6,10.05 z"
             id="path96"
             style="isolation:isolate;fill:#ecb11f;fill-opacity:1" />
          <path
             class="st1"
             d="M 126.5919,100.64 H 89.051903 c -7.73,0 -14,6.27 -14,14 v 12.06 c 0,4.79 2.41,9.02 6.08,11.54 1.51,-6.81 4.55,-10.09 7.85,-12.95 0.87,-0.76 1.55,-1.35 1.98,-1.96 0.37,-0.52 0.88,-1.66 1.37,-2.76 2,-4.44 5.73,-12.7 15.489997,-12.7 9.76,0 13.48,8.26 15.49,12.69 0.5,1.1 1.01,2.24 1.38,2.77 0.42,0.6 1.11,1.2 1.98,1.96 3.29,2.86 6.34,6.14 7.85,12.95 3.67,-2.52 6.08,-6.75 6.08,-11.54 v -12.06 c 0,-7.73 -6.27,-14 -14,-14 z"
             id="path97"
             style="isolation:isolate;fill:#007e7a;fill-opacity:1" />
          <path
             class="st0"
             d="m 107.8119,90.88 c 36.4,0 65.9,6.82 65.9,15.23 0,-9.91 -29.51,-17.95 -65.9,-17.95 -36.389997,0 -65.899997,8.04 -65.899997,17.95 0,-8.41 29.51,-15.23 65.899997,-15.23 z"
             id="path98"
             style="isolation:isolate;fill:#ecb11f;fill-opacity:1" />
        </g>
      </g>
    </g>
  </g>
</svg>
